# xmcd
#
# Track frame offsets:
#	150
#	9465
#	22155
#	37069
#	49461
#	58218
#	76537
#	84519
#	97067
#	106214
#
# Disc length: 1584 seconds
#
# Revision: 1
# Processed by: cddbd v1.5.2PL0 Copyright (c) Steve Scherf et al.
# Submitted via: audiograbber 1.83.01
#
DISCID=7d062e0a
DTITLE=The Primitive Quartet - Smoky Mountain Songs Of Faith
DYEAR=1994
DGENRE=Gospel
TTITLE0=Just Over In The Gloryland
TTITLE1=Victory In Jesus
TTITLE2=What A Friend We Have In Jesus
TTITLE3=The Unclouded Day
TTITLE4=The Lily Of The Valley
TTITLE5=Precious Memories
TTITLE6=I Feel Like Traveling On
TTITLE7=How Beautiful Heaven Must Be
TTITLE8=I'll Live In Glory
TTITLE9=I'll Meet You In The Morning
EXTD=
EXTT0=
EXTT1=
EXTT2=
EXTT3=
EXTT4=
EXTT5=
EXTT6=
EXTT7=
EXTT8=
EXTT9=
PLAYORDER=
